<?xml version="1.0" encoding="UTF-8" standalone="no"?>
<!DOCTYPE svg PUBLIC "-//W3C//DTD SVG 1.1//EN" "http://www.w3.org/Graphics/SVG/1.1/DTD/svg11.dtd">
<svg width="100%" height="100%" viewBox="0 0 512 512" version="1.1" xmlns="http://www.w3.org/2000/svg" xmlns:xlink="http://www.w3.org/1999/xlink" xml:space="preserve" xmlns:serif="http://www.serif.com/" style="fill-rule:evenodd;clip-rule:evenodd;stroke-linejoin:round;stroke-miterlimit:2;">
    <rect x="0" y="0" width="512" height="512" style="fill:url(#_Linear1);"/>
    <g transform="matrix(1.03498,0,0,1.03498,-8.95478,-8.95478)">
        <g transform="matrix(0.196164,0,0,0.196164,256,256)">
            <g transform="matrix(1,0,0,1,-1000,-1000)">
                <g id="l1c1qis0qA1Xt2GjJI5T8BJ" transform="matrix(0.416667,0,0,0.416667,0,0)">
                    <g>
                        <path id="pRmFQ170" d="M425,4750C321,4735 215,4657 170,4566C159,4542 145,4496 140,4464C126,4382 127,3738 141,3664C167,3521 278,3411 423,3385C450,3380 460,3373 460,3359C460,3346 453,3340 438,3340C400,3340 316,3295 277,3255C221,3197 197,3123 202,3020C209,2886 259,2808 370,2756C413,2736 431,2735 735,2735C1047,2735 1056,2736 1101,2758C1160,2787 1213,2840 1241,2899C1273,2966 1273,3104 1241,3175C1204,3258 1129,3321 1048,3335C1020,3340 1010,3347 1010,3360C1010,3374 1023,3381 1065,3390C1168,3411 1282,3513 1311,3611L1322,3647L1589,3525C1843,3409 1855,3402 1858,3374C1860,3349 1855,3342 1823,3325C1755,3289 1633,3191 1566,3118C1437,2979 1348,2816 1302,2632L1274,2525L1231,2518C1139,2502 1033,2428 984,2344C934,2259 930,2223 930,1834C930,1419 935,1386 1011,1290L1051,1239L1039,1185C1032,1154 1029,1092 1032,1033C1036,949 1041,925 1068,869C1087,829 1118,786 1148,757C1197,712 1286,660 1315,660C1326,660 1330,649 1330,617C1330,484 1387,345 1479,253C1577,155 1672,119 1950,75C2112,49 2601,43 2801,64C2973,83 3201,126 3361,170C3511,211 3714,285 3750,310C3799,345 3820,397 3820,487C3820,581 3806,609 3717,691L3656,747L3727,784C3874,861 3916,922 3908,1048C3904,1131 3880,1171 3809,1220L3761,1252L3796,1298C3815,1323 3840,1373 3851,1410C3870,1473 3871,1499 3868,1856C3865,2230 3865,2236 3841,2295C3798,2401 3679,2499 3569,2518L3526,2525L3499,2625C3465,2754 3448,2798 3399,2890C3304,3066 3152,3223 2978,3324C2930,3352 2918,3377 2943,3398C2949,3403 3072,3462 3216,3527L3477,3646L3493,3600C3528,3502 3633,3411 3735,3390C3777,3381 3790,3374 3790,3360C3790,3347 3780,3340 3753,3335C3671,3321 3596,3258 3559,3175C3527,3104 3527,2964 3558,2898C3586,2841 3640,2787 3699,2758C3744,2736 3753,2735 4065,2735C4369,2735 4387,2736 4430,2756C4541,2808 4591,2886 4598,3020C4603,3123 4579,3197 4523,3255C4484,3295 4400,3340 4363,3340C4347,3340 4340,3346 4340,3359C4340,3373 4350,3380 4378,3385C4522,3411 4633,3521 4659,3664C4672,3737 4674,4381 4661,4461C4641,4582 4574,4670 4462,4723L4395,4755L2435,4756C1357,4757 452,4754 425,4750ZM1044,4506C1083,4477 1119,4412 1120,4373C1120,4350 1118,4350 1001,4350C896,4350 880,4348 856,4329C833,4311 830,4302 830,4245C830,4188 833,4179 856,4161C880,4142 896,4140 1001,4140L1120,4140L1120,4000L1016,4000C905,4000 855,3989 840,3960C827,3936 827,3844 840,3820C855,3791 905,3780 1016,3780C1114,3780 1120,3779 1120,3760C1120,3699 1052,3620 983,3600C958,3593 862,3590 709,3592L473,3595L432,3623C409,3638 380,3669 368,3693C345,3734 345,3741 345,4060C345,4239 348,4397 353,4412C363,4449 417,4510 455,4526C478,4537 545,4539 746,4537L1007,4535L1044,4506ZM4343,4526C4382,4510 4437,4450 4447,4412C4452,4397 4455,4239 4455,4060C4455,3741 4455,3734 4432,3693C4420,3669 4391,3638 4368,3623L4327,3595L4091,3592C3938,3590 3842,3593 3817,3600C3748,3620 3680,3699 3680,3760C3680,3779 3686,3780 3778,3780C3889,3780 3945,3792 3960,3820C3973,3844 3973,3936 3960,3960C3945,3989 3895,4000 3784,4000L3680,4000L3680,4140L3799,4140C3904,4140 3920,4142 3944,4161C3967,4179 3970,4188 3970,4245C3970,4302 3967,4311 3944,4329C3920,4348 3904,4350 3799,4350C3682,4350 3680,4350 3680,4373C3681,4403 3713,4471 3736,4492C3788,4538 3803,4540 4063,4540C4248,4540 4319,4537 4343,4526ZM2528,3826C2595,3792 2652,3735 2686,3668C2709,3625 2714,3598 2718,3524L2722,3432L2659,3448C2611,3460 2547,3464 2400,3464C2253,3464 2189,3460 2141,3448L2078,3432L2082,3524C2086,3598 2091,3625 2114,3668C2158,3754 2236,3820 2330,3851C2376,3867 2472,3854 2528,3826ZM2609,3230C2862,3158 3063,3006 3192,2786C3231,2720 3290,2575 3290,2545C3290,2533 3238,2531 2968,2528L2645,2525L2590,2499C2560,2484 2508,2449 2475,2421C2443,2393 2409,2370 2400,2370C2391,2370 2357,2393 2325,2421C2292,2449 2240,2484 2210,2499L2155,2525L1833,2528C1562,2531 1510,2533 1510,2545C1510,2575 1569,2720 1608,2786C1754,3034 2009,3207 2295,3254C2359,3264 2536,3251 2609,3230ZM2085,2301C2107,2291 2152,2260 2185,2232C2256,2171 2310,2150 2400,2150C2490,2150 2544,2171 2615,2232C2721,2322 2704,2320 3115,2320C3456,2320 3477,2318 3520,2299C3576,2274 3606,2246 3633,2195C3654,2156 3655,2144 3655,1835C3655,1526 3654,1514 3633,1475C3609,1429 3579,1400 3530,1374C3496,1356 3450,1355 2400,1355C1350,1355 1304,1356 1270,1374C1221,1400 1191,1429 1167,1475C1146,1513 1145,1530 1142,1812C1140,1998 1143,2123 1149,2148C1162,2195 1196,2246 1231,2272C1290,2316 1317,2319 1690,2319C2013,2320 2049,2318 2085,2301Z" style="fill-rule:nonzero;"/>
                        <path id="p1DlLaXhcx" d="M2314,2911C2176,2889 2070,2796 2070,2696C2070,2621 2104,2590 2187,2590C2228,2590 2237,2595 2269,2629C2289,2650 2319,2675 2337,2684C2401,2717 2466,2698 2531,2629C2563,2595 2572,2590 2613,2590C2696,2590 2730,2621 2730,2696C2730,2773 2662,2853 2566,2889C2506,2911 2386,2922 2314,2911Z" style="fill-rule:nonzero;"/>
                    </g>
                </g>
                <g id="l1InvHlLF1ATcKbhHtqbp8e" transform="matrix(0.416667,0,0,0.416667,0,0)">
                    <g>
                        <path id="po2CL75BF" d="M425,4556C387,4540 333,4479 323,4442C318,4427 315,4255 315,4060C315,3710 315,3704 338,3663C350,3639 379,3608 402,3593L443,3565L709,3562C1002,3558 1029,3562 1087,3613C1132,3652 1150,3695 1150,3760L1150,3810L1045,3810C890,3810 844,3837 864,3916C874,3955 923,3970 1045,3970L1150,3970L1150,4170L1031,4170C926,4170 910,4172 886,4191C867,4206 860,4221 860,4245C860,4269 867,4284 886,4299C910,4318 926,4320 1031,4320L1150,4320L1150,4373C1149,4440 1122,4500 1074,4536L1037,4565L746,4567C521,4569 448,4567 425,4556Z" style="fill:white;fill-rule:nonzero;"/>
                        <path id="p16GOLt0KJ" d="M3755,4554C3686,4518 3651,4457 3650,4373L3650,4320L3769,4320C3874,4320 3890,4318 3914,4299C3933,4284 3940,4269 3940,4245C3940,4221 3933,4206 3914,4191C3890,4172 3874,4170 3769,4170L3650,4170L3650,3970L3755,3970C3879,3970 3926,3956 3936,3914C3947,3871 3929,3837 3890,3823C3870,3816 3811,3811 3755,3812L3655,3813L3652,3774C3647,3712 3659,3671 3696,3630C3757,3562 3779,3559 4086,3562L4357,3565L4398,3593C4421,3608 4450,3639 4462,3663C4485,3704 4485,3710 4485,4060C4485,4255 4482,4427 4477,4442C4467,4480 4412,4540 4373,4556C4322,4578 3796,4576 3755,4554Z" style="fill:white;fill-rule:nonzero;"/>
                        <path id="p1H5PyOECx" d="M2300,3881C2207,3851 2128,3784 2083,3698C2058,3650 2055,3634 2052,3513L2048,3380L2091,3395C2163,3421 2297,3440 2400,3440C2503,3440 2637,3421 2709,3395L2752,3380L2748,3513C2745,3634 2742,3650 2717,3698C2682,3765 2625,3822 2558,3856C2514,3879 2490,3884 2415,3887C2366,3888 2314,3886 2300,3881Z" style="fill:white;fill-rule:nonzero;"/>
                        <path id="pyayJgGR8" d="M2265,3284C1910,3227 1610,2976 1501,2644C1485,2595 1469,2543 1466,2528L1460,2501L1792,2498L2125,2495L2180,2469C2210,2454 2262,2419 2295,2391C2388,2311 2412,2311 2505,2391C2538,2419 2590,2454 2620,2469L2675,2495L3008,2498L3340,2501L3334,2528C3272,2797 3108,3025 2880,3158C2728,3247 2611,3280 2430,3285C2356,3287 2282,3286 2265,3284ZM2536,2859C2598,2836 2662,2783 2685,2734C2706,2689 2692,2647 2649,2629C2612,2614 2579,2627 2554,2665C2527,2706 2470,2730 2400,2730C2330,2730 2273,2706 2246,2665C2221,2627 2188,2614 2151,2629C2029,2680 2164,2856 2344,2879C2412,2888 2474,2881 2536,2859Z" style="fill:white;fill-rule:nonzero;"/>
                        <path id="pl77yJ3XB" d="M1266,2335C1191,2308 1140,2254 1119,2178C1113,2153 1110,2018 1112,1812C1115,1499 1116,1483 1137,1445C1161,1399 1191,1370 1240,1344C1274,1326 1321,1325 2400,1325C3479,1325 3526,1326 3560,1344C3609,1370 3639,1399 3663,1445C3684,1484 3685,1496 3685,1835C3685,2174 3684,2186 3663,2225C3636,2276 3606,2304 3550,2329C3507,2349 3486,2350 3115,2350C2671,2350 2692,2353 2585,2262C2458,2153 2342,2153 2215,2262C2108,2353 2129,2350 1690,2349C1385,2349 1297,2346 1266,2335Z" style="fill:white;fill-rule:nonzero;"/>
                    </g>
                </g>
            </g>
        </g>
    </g>
    <g transform="matrix(0.0207972,0,0,0.0207972,256,207.144)">
        <g transform="matrix(1,0,0,1,-5204.17,-2589.58)">
            <g id="l4mT6kq6yBIhbh9vnGBrwKb">
            </g>
            <g id="l58hhpUOkjNaZ6T4tvayQNN">
            </g>
            <g transform="matrix(0.606006,0,0,0.606006,-3397.79,-1525.68)">
                <g id="l4Xq3WsuPYol1ofc6gOkwDW">
                    <g>
                        <path id="pMYcgZHtZ" d="M17528,7890C17345,7857 17194,7756 17126,7621C17006,7385 17086,7022 17333,6678C17647,6241 18134,5900 18591,5798C18727,5768 18969,5766 19070,5794C19350,5872 19513,6083 19497,6345C19476,6663 19225,7078 18863,7389C18496,7706 18087,7885 17710,7895C17636,7897 17554,7895 17528,7890ZM18061,7595C18282,7557 18467,7453 18660,7260C18789,7131 18866,7028 18941,6887C19155,6480 19117,6133 18847,6040C18811,6028 18747,6016 18695,6013C18407,5995 18082,6149 17847,6415C17506,6801 17391,7272 17586,7489C17683,7597 17845,7633 18061,7595Z" style="fill:rgb(14,27,141);fill-rule:nonzero;"/>
                        <path id="pPQnwBA62" d="M12335,7871C12303,7857 12287,7833 12294,7806C12297,7793 12345,7742 12400,7692C12455,7643 12846,7252 13268,6824C14110,5971 14181,5901 14266,5850C14323,5816 14554,5749 14670,5734C14724,5727 14770,5746 14796,5785C14812,5809 14811,5817 14786,5923C14765,6013 14749,6166 14700,6715C14636,7438 14634,7478 14651,7577C14660,7629 14660,7644 14647,7663C14617,7709 14335,7860 14279,7860C14244,7860 14203,7809 14195,7757C14191,7731 14193,7602 14200,7469C14208,7300 14209,7225 14201,7217C14180,7196 13375,7245 13243,7275C13151,7297 13102,7327 13012,7423C12799,7648 12759,7687 12686,7741C12547,7846 12401,7900 12335,7871ZM13750,6990C13835,6985 13983,6978 14078,6974C14193,6969 14250,6964 14250,6956C14250,6950 14268,6781 14290,6581C14312,6381 14327,6214 14324,6209C14311,6187 14280,6208 14171,6313C14107,6375 14006,6470 13945,6525C13808,6648 13506,6945 13478,6984L13457,7012L13526,7006C13564,7002 13665,6995 13750,6990Z" style="fill:rgb(14,27,141);fill-rule:nonzero;"/>
                        <path id="p1GRrAhFli" d="M8857,7852C8847,7842 8840,7822 8840,7808C8840,7735 8965,7453 9141,7128C9179,7059 9210,6997 9210,6991C9210,6985 9183,6940 9150,6890C8998,6658 8804,6202 8775,6009L8769,5965L8824,5931C8909,5880 8994,5849 9068,5843C9164,5835 9178,5849 9225,5992C9245,6054 9295,6191 9337,6295C9440,6556 9511,6690 9545,6690C9580,6690 10026,6294 10332,5991C10442,5882 10548,5786 10572,5773C10657,5728 10801,5687 10877,5686C10940,5685 10951,5688 10974,5709C11025,5756 11032,5748 10730,6006C10459,6238 9825,6819 9752,6903C9565,7119 9438,7354 9384,7586C9376,7624 9362,7665 9354,7677C9323,7726 8982,7870 8899,7870C8885,7870 8866,7862 8857,7852Z" style="fill:rgb(14,27,141);fill-rule:nonzero;"/>
                        <path id="pWwolkcmC" d="M15445,7856C15287,7825 15182,7772 15085,7675C14973,7563 14933,7455 14943,7290C14961,7009 15132,6716 15468,6388C15769,6095 16118,5893 16478,5803C16570,5780 16606,5776 16740,5776C16962,5775 17079,5811 17184,5910C17259,5981 17285,6041 17285,6150C17285,6225 17281,6243 17252,6304C17179,6459 16959,6614 16793,6628C16728,6633 16680,6615 16680,6586C16680,6579 16716,6526 16760,6469C16804,6412 16847,6345 16855,6321C16901,6187 16841,6073 16703,6030C16507,5970 16224,6060 15943,6272C15705,6451 15491,6752 15418,7008C15386,7118 15387,7273 15418,7351C15492,7537 15718,7626 15987,7575C16081,7558 16253,7475 16350,7401C16386,7374 16470,7300 16537,7236C16669,7113 16715,7087 16825,7074C16951,7059 16935,7132 16771,7319C16653,7453 16405,7638 16225,7725C16119,7777 15987,7822 15875,7845C15766,7868 15535,7873 15445,7856Z" style="fill:rgb(14,27,141);fill-rule:nonzero;"/>
                        <path id="pHsRDnPTt" d="M6415,7850C6276,7830 6171,7781 6104,7707C6037,7632 6034,7566 6091,7402C6154,7224 6373,6822 6627,6422C6803,6144 6808,6134 6792,6118C6783,6109 6749,6113 6647,6138C6494,6176 6467,6177 6440,6150C6369,6079 6476,6012 6793,5930C7122,5844 7391,5803 7685,5793C8227,5775 8543,5908 8631,6191C8654,6265 8655,6327 8634,6428C8590,6643 8441,6893 8217,7127C7854,7506 7277,7791 6755,7850C6654,7861 6490,7861 6415,7850ZM7102,7566C7515,7460 7942,7121 8160,6724C8231,6596 8254,6519 8254,6405C8255,6315 8252,6299 8227,6249C8177,6147 8080,6077 7932,6039C7791,6002 7481,6003 7346,6041C7321,6048 7289,6070 7258,6102C7103,6261 6614,7126 6545,7364C6516,7463 6537,7522 6613,7559C6682,7592 6734,7600 6875,7595C6971,7592 7031,7585 7102,7566Z" style="fill:rgb(14,27,141);fill-rule:nonzero;"/>
                        <path id="pcjwPsSx7" d="M11653,7831C11594,7794 11546,7686 11491,7464C11422,7187 11360,6818 11341,6566C11331,6433 11321,6404 11296,6430C11288,6438 11204,6578 11110,6740C10915,7076 10761,7379 10711,7524C10661,7669 10646,7683 10447,7765C10260,7843 10216,7852 10182,7820C10150,7790 10156,7770 10249,7615C10469,7249 10752,6731 10970,6295L11126,5985L11190,5953C11261,5917 11410,5877 11536,5858C11634,5844 11675,5856 11695,5904C11702,5921 11713,6016 11719,6115C11745,6521 11818,6960 11899,7191C11943,7315 11964,7353 11987,7348C11997,7346 12025,7293 12059,7210C12143,7012 12422,6470 12568,6220C12599,6168 12638,6089 12655,6045C12672,6001 12690,5958 12695,5949C12721,5907 12972,5812 13080,5804C13134,5799 13151,5802 13178,5819C13217,5844 13226,5864 13212,5893C13207,5905 13151,5985 13089,6070C12753,6530 12418,7150 12316,7500C12283,7614 12276,7632 12252,7653C12205,7695 11827,7836 11733,7846C11696,7850 11678,7847 11653,7831Z" style="fill:rgb(14,27,141);fill-rule:nonzero;"/>
                        <path id="pBVBQkPIf" d="M20773,7831C20714,7794 20666,7686 20611,7464C20542,7187 20480,6818 20461,6566C20451,6433 20441,6404 20416,6430C20408,6438 20324,6578 20230,6740C20035,7076 19881,7379 19831,7524C19781,7669 19766,7683 19567,7765C19380,7843 19336,7852 19302,7820C19270,7790 19276,7770 19369,7615C19589,7249 19872,6731 20090,6295L20246,5985L20310,5953C20381,5917 20530,5877 20656,5858C20754,5844 20795,5856 20815,5904C20822,5921 20833,6016 20839,6115C20865,6521 20938,6960 21019,7191C21063,7315 21084,7353 21107,7348C21117,7346 21145,7293 21179,7210C21263,7012 21542,6470 21688,6220C21719,6168 21758,6089 21775,6045C21792,6001 21810,5958 21815,5949C21841,5907 22092,5812 22200,5804C22254,5799 22271,5802 22298,5819C22337,5844 22346,5864 22332,5893C22327,5905 22271,5985 22209,6070C21873,6530 21538,7150 21436,7500C21403,7614 21396,7632 21372,7653C21325,7695 20947,7836 20853,7846C20816,7850 20798,7847 20773,7831Z" style="fill:rgb(14,27,141);fill-rule:nonzero;"/>
                    </g>
                </g>
            </g>
        </g>
    </g>
    <defs>
        <linearGradient id="_Linear1" x1="0" y1="0" x2="1" y2="0" gradientUnits="userSpaceOnUse" gradientTransform="matrix(472.499,323.616,-323.616,472.499,8.87637,71.2566)"><stop offset="0" style="stop-color:rgb(255,148,26);stop-opacity:1"/><stop offset="1" style="stop-color:rgb(239,108,1);stop-opacity:1"/></linearGradient>
    </defs>
</svg>
